<svg width="31" height="30" viewBox="0 0 31 30" fill="none" xmlns="http://www.w3.org/2000/svg">
<g clip-path="url(#clip0_34_597)">
<path d="M23.4688 0H7.53125C3.648 0 0.5 3.04306 0.5 6.79688V22.2031C0.5 25.9569 3.648 29 7.53125 29H23.4688C27.352 29 30.5 25.9569 30.5 22.2031V6.79688C30.5 3.04306 27.352 0 23.4688 0Z" fill="url(#paint0_radial_34_597)"/>
<path d="M23.4688 0H7.53125C3.648 0 0.5 3.04306 0.5 6.79688V22.2031C0.5 25.9569 3.648 29 7.53125 29H23.4688C27.352 29 30.5 25.9569 30.5 22.2031V6.79688C30.5 3.04306 27.352 0 23.4688 0Z" fill="url(#paint1_radial_34_597)"/>
<path d="M15.5011 3.17188C12.3185 3.17188 11.919 3.18536 10.6691 3.2403C9.42148 3.29558 8.56988 3.48646 7.8248 3.7666C7.05395 4.05592 6.40016 4.443 5.74883 5.07285C5.09691 5.70258 4.69648 6.33457 4.39625 7.0794C4.10563 7.79987 3.90793 8.62342 3.8518 9.82885C3.7959 11.0372 3.78125 11.4235 3.78125 14.5001C3.78125 17.5767 3.79531 17.9616 3.85203 19.1699C3.90945 20.3759 4.10691 21.1991 4.39648 21.9194C4.69602 22.6645 5.09645 23.2965 5.74801 23.9261C6.39922 24.5563 7.05301 24.9443 7.82328 25.2336C8.56895 25.5138 9.42066 25.7046 10.668 25.7599C11.918 25.8149 12.3172 25.8284 15.4996 25.8284C18.6826 25.8284 19.0808 25.8149 20.3307 25.7599C21.5783 25.7046 22.4308 25.5138 23.1765 25.2336C23.947 24.9443 24.5998 24.5563 25.2509 23.9261C25.9029 23.2965 26.3032 22.6645 26.6035 21.9197C26.8916 21.1991 27.0894 20.3757 27.148 19.1701C27.2041 17.9619 27.2188 17.5767 27.2188 14.5001C27.2188 11.4235 27.2041 11.0374 27.148 9.82907C27.0894 8.62308 26.8916 7.79998 26.6035 7.07974C26.3032 6.33457 25.9029 5.70258 25.2509 5.07285C24.5991 4.44278 23.9472 4.0557 23.1758 3.76671C22.4287 3.48646 21.5766 3.29546 20.3291 3.2403C19.079 3.18536 18.6811 3.17188 15.4974 3.17188H15.5011ZM14.4498 5.21332C14.7618 5.21286 15.11 5.21332 15.5011 5.21332C18.6301 5.21332 19.0009 5.22419 20.2365 5.27845C21.3791 5.32898 21.9992 5.51351 22.4123 5.66859C22.9592 5.87386 23.3491 6.11934 23.759 6.51594C24.1692 6.91242 24.423 7.28999 24.6359 7.81867C24.7964 8.21742 24.9875 8.81691 25.0395 9.9214C25.0957 11.1156 25.1079 11.4743 25.1079 14.4975C25.1079 17.5208 25.0957 17.8795 25.0395 19.0736C24.9873 20.1781 24.7964 20.7776 24.6359 21.1765C24.4236 21.7051 24.1692 22.0816 23.759 22.4778C23.3489 22.8743 22.9595 23.1197 22.4123 23.3251C21.9997 23.4808 21.3791 23.6649 20.2365 23.7154C19.0011 23.7697 18.6301 23.7815 15.5011 23.7815C12.3719 23.7815 12.001 23.7697 10.7657 23.7154C9.62316 23.6645 9.00301 23.4799 8.58957 23.3248C8.04277 23.1195 7.65207 22.8741 7.24191 22.4776C6.83176 22.0811 6.57793 21.7045 6.365 21.1756C6.20457 20.7767 6.01344 20.1772 5.96141 19.0727C5.90527 17.8785 5.89402 17.5199 5.89402 14.4947C5.89402 11.4695 5.90527 11.1128 5.96141 9.91857C6.01367 8.81407 6.20457 8.21459 6.365 7.81527C6.57746 7.28659 6.83176 6.90902 7.24203 6.51254C7.6523 6.11605 8.04277 5.87057 8.58969 5.66486C9.00277 5.50909 9.62316 5.32501 10.7657 5.27426C11.8468 5.22702 12.2657 5.21286 14.4498 5.21048V5.21332ZM21.7565 7.09424C20.9802 7.09424 20.3503 7.70256 20.3503 8.45316C20.3503 9.20365 20.9802 9.81253 21.7565 9.81253C22.5329 9.81253 23.1628 9.20365 23.1628 8.45316C23.1628 7.70267 22.5329 7.09378 21.7565 7.09378V7.09424ZM15.5011 8.68255C12.1776 8.68255 9.48301 11.2873 9.48301 14.5001C9.48301 17.7129 12.1776 20.3164 15.5011 20.3164C18.8246 20.3164 21.5183 17.7129 21.5183 14.5001C21.5183 11.2875 18.8244 8.68255 15.5008 8.68255H15.5011ZM15.5011 10.724C17.6584 10.724 19.4074 12.4145 19.4074 14.5001C19.4074 16.5855 17.6584 18.2762 15.5011 18.2762C13.3438 18.2762 11.5948 16.5855 11.5948 14.5001C11.5948 12.4145 13.3436 10.724 15.5011 10.724Z" fill="white"/>
</g>
<defs>
<radialGradient id="paint0_radial_34_597" cx="0" cy="0" r="1" gradientUnits="userSpaceOnUse" gradientTransform="translate(8.46875 31.2336) rotate(-90) scale(28.7412 27.6533)">
<stop stop-color="#FFDD55"/>
<stop offset="0.1" stop-color="#FFDD55"/>
<stop offset="0.5" stop-color="#FF543E"/>
<stop offset="1" stop-color="#C837AB"/>
</radialGradient>
<radialGradient id="paint1_radial_34_597" cx="0" cy="0" r="1" gradientUnits="userSpaceOnUse" gradientTransform="translate(-4.52512 2.08902) rotate(78.3013) scale(12.8648 54.7099)">
<stop stop-color="#3771C8"/>
<stop offset="0.128" stop-color="#3771C8"/>
<stop offset="1" stop-color="#6600FF" stop-opacity="0"/>
</radialGradient>
<clipPath id="clip0_34_597">
<rect width="30" height="30" fill="white" transform="translate(0.5)"/>
</clipPath>
</defs>
</svg>
