<svg width="29" height="30" viewBox="0 0 29 30" fill="none" xmlns="http://www.w3.org/2000/svg">
<g clip-path="url(#clip0_34_621)">
<path d="M14.5 0.5C10.6552 0.5 6.96453 2.02862 4.24805 4.74691C1.52878 7.4663 0.000778126 11.1543 0 15C0 18.8441 1.5293 22.5348 4.24805 25.2531C6.96453 27.9714 10.6552 29.5 14.5 29.5C18.3448 29.5 22.0355 27.9714 24.752 25.2531C27.4707 22.5348 29 18.8441 29 15C29 11.1559 27.4707 7.46521 24.752 4.74691C22.0355 2.02862 18.3448 0.5 14.5 0.5Z" fill="url(#paint0_linear_34_621)"/>
<path d="M6.56352 14.8468C10.7912 13.0053 13.6096 11.7913 15.0188 11.2046C19.0471 9.52964 19.8831 9.23873 20.4291 9.22888C20.5492 9.22695 20.8166 9.25663 20.991 9.39766C21.136 9.51661 21.1768 9.67747 21.1972 9.79041C21.2153 9.90324 21.2402 10.1604 21.2198 10.3611C21.0023 12.6539 20.0576 18.2179 19.5773 20.7859C19.3756 21.8725 18.9746 22.2368 18.5872 22.2724C17.7444 22.3499 17.1055 21.716 16.2898 21.1815C15.0143 20.3448 14.2938 19.8242 13.0545 19.0079C11.6227 18.0645 12.5516 17.5459 13.3672 16.6985C13.5802 16.4767 17.2913 13.1021 17.3615 12.796C17.3705 12.7577 17.3796 12.615 17.2935 12.5397C17.2097 12.4643 17.0851 12.4901 16.9945 12.5105C16.8653 12.5395 14.8285 13.8871 10.8773 16.5531C10.2995 16.9505 9.77617 17.1442 9.30492 17.134C8.78836 17.1229 7.79149 16.8413 7.05063 16.6007C6.14438 16.3054 5.42164 16.1493 5.48508 15.648C5.5168 15.387 5.87703 15.1198 6.56352 14.8468Z" fill="white"/>
</g>
<defs>
<linearGradient id="paint0_linear_34_621" x1="1450" y1="0.5" x2="1450" y2="2900.5" gradientUnits="userSpaceOnUse">
<stop stop-color="#2AABEE"/>
<stop offset="1" stop-color="#229ED9"/>
</linearGradient>
<clipPath id="clip0_34_621">
<rect width="29" height="29" fill="white" transform="translate(0 0.5)"/>
</clipPath>
</defs>
</svg>
