<svg width="42" height="30" viewBox="0 0 42 30" fill="none" xmlns="http://www.w3.org/2000/svg">
<g clip-path="url(#clip0_33_553)">
<path d="M40.7112 5.02319C40.4747 4.14893 40.0132 3.3519 39.3728 2.71146C38.7324 2.07101 37.9354 1.60951 37.0611 1.3729C33.8605 0.5 20.979 0.5 20.979 0.5C20.979 0.5 8.09687 0.526422 4.89624 1.39932C4.02197 1.63595 3.22494 2.09747 2.58453 2.73795C1.94411 3.37842 1.48265 4.17549 1.24611 5.04978C0.277989 10.7367 -0.0975613 19.4022 1.27269 24.8616C1.50926 25.7359 1.97073 26.5329 2.61114 27.1733C3.25156 27.8138 4.04857 28.2753 4.92282 28.5119C8.12346 29.3848 21.0053 29.3848 21.0053 29.3848C21.0053 29.3848 33.8869 29.3848 37.0874 28.5119C37.9616 28.2753 38.7587 27.8138 39.3991 27.1734C40.0396 26.5329 40.5011 25.7359 40.7377 24.8616C41.7588 19.1667 42.0734 10.5064 40.7112 5.02319Z" fill="#FF0000"/>
<path d="M16.8789 21.1319L27.5651 14.9423L16.8789 8.75275V21.1319Z" fill="white"/>
</g>
<defs>
<clipPath id="clip0_33_553">
<rect width="41.2444" height="29" fill="white" transform="translate(0.377686 0.5)"/>
</clipPath>
</defs>
</svg>
