<svg width="161" height="170" viewBox="0 0 161 170" fill="none" xmlns="http://www.w3.org/2000/svg">
<g clip-path="url(#clip0_34_737)">
<path fill-rule="evenodd" clip-rule="evenodd" d="M110.958 93.376C111.426 109.522 109.149 126.57 100.9 140.446C97.8996 145.495 93.9462 149.575 89.9364 153.789C89.6557 154.085 89.1857 154.097 88.8881 153.815C88.5914 153.532 88.5793 153.062 88.8626 152.765C92.7944 148.632 96.6819 144.639 99.6245 139.688C107.756 126.009 109.952 109.19 109.472 93.2774L109.227 93.2651C106.562 93.1382 103.693 90.9342 101.164 87.6657C97.5381 82.9813 94.5466 76.1576 93.6373 70.9171C93.2292 68.5622 93.2488 66.513 93.7629 65.0746C94.1632 63.9528 94.8573 63.1677 95.8415 62.7873C97.9395 61.9781 100.209 63.19 102.276 65.715C106.598 70.9944 110.272 81.944 110.64 87.0617C110.754 88.6599 110.845 90.2728 110.907 91.8952C111.376 91.9302 111.834 91.9626 112.281 91.9741C113.556 92.0028 114.757 91.8547 115.958 91.0061C117.829 89.6815 119.089 87.5979 119.961 85.2551C121.32 81.5979 121.723 77.3044 121.847 74.0562C122.536 55.9665 114.537 42.7957 104.79 32.9756C94.944 23.06 83.3138 16.5388 76.8887 11.83C76.5577 11.5885 76.4879 11.1243 76.7295 10.7934C76.971 10.4624 77.436 10.3909 77.7661 10.6342C84.233 15.3728 95.932 21.9485 105.842 31.9316C115.851 42.0104 124.037 55.5427 123.331 74.112C123.202 77.4955 122.768 81.9636 121.352 85.7717C120.371 88.4076 118.92 90.7271 116.815 92.2176C114.925 93.5544 113.049 93.5171 110.958 93.376ZM109.419 91.7887L109.296 91.7839C106.967 91.6732 104.549 89.6159 102.338 86.7576C98.854 82.2563 95.974 75.7012 95.1006 70.6627C94.8001 68.9354 94.7355 67.3951 94.9866 66.1959C95.195 65.207 95.6103 64.467 96.3758 64.1731C97.0976 63.8921 97.837 64.0095 98.5736 64.3924C99.4392 64.8405 100.292 65.6345 101.127 66.6538C105.281 71.7273 108.807 82.25 109.159 87.1676C109.268 88.695 109.356 90.2362 109.419 91.7887Z" fill="white"/>
<path fill-rule="evenodd" clip-rule="evenodd" d="M87.0378 154.434C87.351 154.52 87.8062 154.507 88.2955 154.487C89.4609 154.441 90.794 154.211 91.4267 154.128C91.834 154.075 92.205 154.363 92.2584 154.769C92.3109 155.176 92.0247 155.548 91.6174 155.6C90.8422 155.701 89.0651 156.005 87.733 155.978C87.0186 155.963 86.4146 155.837 86.0486 155.613C85.4247 155.232 85.2782 154.513 85.8177 153.505C86.4567 152.314 88.1931 150.379 88.4135 148.135C88.4527 147.729 88.8182 147.43 89.2242 147.471C89.6329 147.511 89.931 147.873 89.891 148.282C89.6797 150.42 88.2936 152.338 87.4453 153.671C87.2844 153.924 87.1276 154.243 87.0378 154.434Z" fill="white"/>
</g>
<defs>
<clipPath id="clip0_34_737">
<rect width="125.848" height="125.848" fill="white" transform="matrix(-0.450799 0.892625 0.892625 0.450799 56.7324 0)"/>
</clipPath>
</defs>
</svg>
