<svg width="25" height="26" viewBox="0 0 25 26" fill="none" xmlns="http://www.w3.org/2000/svg">
<path d="M2.26318 12.3684V22.4737C2.26318 23.1437 2.52935 23.7863 3.00312 24.2601C3.4769 24.7339 4.11948 25 4.7895 25H19.9474C20.6174 25 21.26 24.7339 21.7338 24.2601C22.2075 23.7863 22.4737 23.1437 22.4737 22.4737V12.3684" stroke="#D78502" stroke-width="1.5" stroke-linecap="round" stroke-linejoin="round"/>
<path d="M12.3685 5.42108C12.3685 4.24855 11.9027 3.12403 11.0736 2.29493C10.2445 1.46582 9.11998 1.00003 7.94745 1.00003C7.10992 1.00003 6.3067 1.33274 5.71448 1.92496C5.12226 2.51718 4.78955 3.3204 4.78955 4.15793C4.78955 4.99545 5.12226 5.79867 5.71448 6.39089C6.3067 6.98311 7.10992 7.31582 7.94745 7.31582H12.3685M12.3685 5.42108V7.31582M12.3685 5.42108C12.3685 4.24855 12.8343 3.12403 13.6634 2.29493C14.4925 1.46582 15.617 1.00003 16.7896 1.00003C17.6271 1.00003 18.4303 1.33274 19.0225 1.92496C19.6147 2.51718 19.9474 3.3204 19.9474 4.15793C19.9474 4.57263 19.8658 4.98327 19.7071 5.3664C19.5484 5.74953 19.3158 6.09766 19.0225 6.39089C18.7293 6.68413 18.3812 6.91674 17.998 7.07544C17.6149 7.23414 17.2043 7.31582 16.7896 7.31582H12.3685" stroke="#D78502" stroke-width="1.5" stroke-linejoin="round"/>
<path d="M12.3684 12.3685V25M1 7.31583H23.7368V12.3685H1V7.31583Z" stroke="#D78502" stroke-width="1.5" stroke-linecap="round" stroke-linejoin="round"/>
</svg>
