<svg width="118" height="47" viewBox="0 0 118 47" fill="none" xmlns="http://www.w3.org/2000/svg">
<g clip-path="url(#clip0_28_1062)">
<mask id="mask0_28_1062" style="mask-type:luminance" maskUnits="userSpaceOnUse" x="-1" y="0" width="120" height="48">
<path d="M118.64 0.104736H-0.222778V47.4301H118.64V0.104736Z" fill="white"/>
</mask>
<g mask="url(#mask0_28_1062)">
<path fill-rule="evenodd" clip-rule="evenodd" d="M23.2838 46.5001C36.0245 46.5001 46.3507 36.2095 46.3507 23.5134C46.3507 10.7936 36.0245 0.503042 23.2838 0.501557C10.5432 0.500071 0.213989 10.7921 0.213989 23.512C0.213989 36.2065 10.5536 46.5001 23.2838 46.5001ZM23.2838 8.38069C24.1827 8.38069 25.0668 8.41635 25.9315 8.4951V20.7662H20.6451V8.49361C21.5068 8.41487 22.3938 8.3792 23.2808 8.3792L23.2838 8.38069ZM32.2535 14.1649C34.2499 14.5224 36.2189 15.0189 38.1462 15.6507V24.5297C38.1462 32.6822 31.4913 39.343 23.2883 39.343C15.0852 39.343 8.4408 32.6822 8.4408 24.5297V15.6447C10.3684 15.0141 12.3373 14.5177 14.3334 14.1589V24.4629C14.3334 31.8814 17.4996 35.7786 23.2883 35.7786C29.0992 35.7786 32.255 31.8814 32.255 24.4629L32.2535 14.1649ZM108.225 12.0848C108.997 10.8144 110.546 9.97494 112.612 9.97494C116.098 9.97494 117.781 12.1873 117.789 14.9226V21.4928H114.531V15.3758C114.531 14.0713 113.788 12.9183 112.222 12.9183C110.656 12.9183 109.874 14.0267 109.874 15.3282V21.4868H106.623V15.3282C106.623 14.0267 105.802 12.9183 104.221 12.9183C102.64 12.9183 101.958 14.0727 101.958 15.3758V21.4868H98.7024V14.9137C98.7024 12.1813 100.485 9.969 103.965 9.969C105.742 9.969 107.436 10.8085 108.222 12.0788L108.225 12.0848ZM81.9546 12.9391V10.1859H71.3922V12.9331H77.6473L71.1381 18.7441V21.4898H82.3469V18.7441H75.4528L81.9546 12.9391ZM92.9658 16.1098C92.9658 17.909 91.9495 18.7381 90.4489 18.7381C88.9482 18.7381 87.9572 17.909 87.9572 16.1098V10.1859H84.6974V16.2182C84.6974 20.1526 87.975 21.6963 90.4563 21.6963C92.9049 21.6963 96.2152 20.1526 96.2152 16.2182V10.1859H92.9598V16.1038L92.9658 16.1098ZM65.7476 16.1098C65.7476 17.909 64.7314 18.7381 63.2307 18.7381C61.7301 18.7381 60.7391 17.909 60.7391 16.1098V10.1859H57.4792V16.2182C57.4792 20.1526 60.7569 21.6963 63.2381 21.6963C65.6867 21.6963 68.9971 20.1526 68.9971 16.2182V10.1859H65.7462V16.1038L65.7476 16.1098ZM62.987 38.5897C63.577 38.8129 64.2049 38.9184 64.8354 38.9003C65.5454 38.901 66.2499 38.7747 66.9155 38.5273C67.5606 38.2862 68.1493 37.915 68.6449 37.4368C69.1549 36.9377 69.5556 36.3381 69.8217 35.6761C70.4041 34.1371 70.4041 32.4383 69.8217 30.8993C69.5556 30.2373 69.1549 29.6377 68.6449 29.1386C68.1501 28.6615 67.5631 28.2904 66.9199 28.0481C65.667 27.591 64.3011 27.5441 63.0197 27.9143C62.5875 28.0498 62.1734 28.2374 61.7865 28.473C61.433 28.6825 61.1151 28.9468 60.8445 29.256H60.7108V23.2059H57.4852V38.8765H60.7108V36.9242H60.8594C61.092 37.3056 61.3944 37.6398 61.7509 37.9092C62.1302 38.1878 62.5449 38.4146 62.9841 38.5838L62.987 38.5897ZM66.1235 35.2512C65.5788 35.7722 64.8126 36.0337 63.825 36.0357C62.8375 36.0377 62.0723 35.7761 61.5295 35.2512C61.2608 34.9988 61.0487 34.6923 60.907 34.3519C60.7654 34.0116 60.6975 33.6451 60.7079 33.2766C60.6944 32.9021 60.7639 32.5293 60.9113 32.1849C61.0587 31.8405 61.2805 31.5329 61.5607 31.2841C62.1283 30.776 62.8821 30.5219 63.8221 30.5219C64.8126 30.5219 65.5788 30.7834 66.1206 31.3064C66.3801 31.5647 66.586 31.8717 66.7264 32.2098C66.8669 32.5479 66.9393 32.9104 66.9393 33.2766C66.9393 33.6427 66.8669 34.0052 66.7264 34.3433C66.586 34.6814 66.3801 34.9884 66.1206 35.2467L66.1235 35.2512ZM88.0256 27.6855H91.2542V29.6943H91.434C91.6357 29.3044 91.9184 28.962 92.263 28.6899C92.6356 28.4006 93.0473 28.1655 93.4858 27.9916C94.0029 27.7732 94.6626 27.6632 95.4708 27.6632C96.0959 27.6557 96.7184 27.7449 97.3162 27.9277C97.8745 28.1022 98.3871 28.3986 98.8168 28.7954C99.2593 29.2168 99.6006 29.7329 99.8153 30.305C100.069 30.9938 100.19 31.7241 100.173 32.4579V38.8809H96.9477V33.3627C96.9477 32.4014 96.6847 31.6868 96.1647 31.2202C95.6447 30.7537 94.9523 30.5204 94.1009 30.5204C93.159 30.5204 92.4492 30.7864 91.9718 31.3183C91.4944 31.8502 91.2552 32.5317 91.2542 33.3627V38.8706H88.0226L88.0256 27.6855ZM106.091 23.2029H102.863V38.8735H106.091V33.3895L111.113 38.8735H114.926L109.725 33.1191L114.522 27.6796H110.73L106.091 32.917V23.2029ZM84.8697 34.9808V27.3928H81.5312L81.5564 29.2382C80.8299 28.155 79.5521 27.167 77.2863 27.167C73.389 27.167 71.3862 30.1935 71.3862 33.229C71.3149 36.3016 73.5807 39.3624 77.1199 39.3624C78.9934 39.3624 80.7095 38.5288 81.5312 37.0638C81.864 38.0296 82.699 39.089 84.4403 39.089H86.3719V36.2481H85.834C85.1565 36.2481 84.8697 36.0045 84.8697 34.9808ZM77.9905 36.4324C76.0724 36.4324 74.6416 35.1115 74.6416 33.2528C74.6416 31.4193 76.0724 30.1193 77.9905 30.1193C79.9696 30.1193 81.4078 31.4193 81.4078 33.2528C81.4078 35.0863 79.9696 36.4324 77.9905 36.4324Z" fill="white"/>
</g>
</g>
<defs>
<clipPath id="clip0_28_1062">
<rect width="117.572" height="46" fill="white" transform="translate(0.214111 0.5)"/>
</clipPath>
</defs>
</svg>
