<svg width="160" height="41" viewBox="0 0 160 41" fill="none" xmlns="http://www.w3.org/2000/svg">
<path fill-rule="evenodd" clip-rule="evenodd" d="M40.5951 20.6562C40.5951 28.2924 28.3895 40.5 20.7514 40.5C13.1132 40.5 0.909546 28.2924 0.909546 20.6562C0.909546 13.02 13.1152 0.814392 20.7514 0.814392C28.3875 0.814392 40.5951 13.02 40.5951 20.6562ZM28.6881 20.6562C28.6881 23.7111 23.8062 28.5929 20.7514 28.5929C17.6965 28.5929 12.8146 23.7111 12.8146 20.6562C12.8146 17.6013 17.6985 12.7195 20.7514 12.7195C23.8043 12.7195 28.6881 17.6013 28.6881 20.6562Z" fill="#0065FF"/>
<path d="M62.2049 40.496C69.6097 40.496 74.2504 35.8554 75.6503 29.7556H67.5217C66.5331 31.8396 64.9671 33.4056 62.2029 33.4056C58.8653 33.4056 56.4155 31.0072 56.4155 26.8806C56.4155 22.7541 58.8653 20.3557 62.2029 20.3557C64.9711 20.3557 66.5311 21.9216 67.5217 24.0077H75.6503C74.2424 17.9058 69.6018 13.2652 62.2049 13.2652C54.278 13.2652 48.4906 19.3136 48.4906 26.8747C48.4906 34.4357 54.2761 40.496 62.2049 40.496ZM78.4362 39.9226H86.3077V0.814388H78.4342L78.4362 39.9226ZM94.9266 10.3033C95.896 10.3033 96.8437 10.0158 97.6498 9.47719C98.4558 8.93859 99.0841 8.17306 99.4551 7.2774C99.8261 6.38175 99.9231 5.3962 99.734 4.44537C99.5449 3.49455 99.0781 2.62116 98.3925 1.93565C97.707 1.25015 96.8337 0.783316 95.8828 0.594185C94.932 0.405055 93.9465 0.502126 93.0508 0.873118C92.1551 1.24411 91.3896 1.87236 90.851 2.67843C90.3124 3.4845 90.0249 4.43219 90.0249 5.40164C90.0265 6.70081 90.5432 7.94634 91.4616 8.86518C92.3801 9.78402 93.6254 10.3012 94.9246 10.3033H94.9266ZM91.0136 39.9226H98.889V13.8505H91.0136V39.9226ZM115.745 40.496C123.15 40.496 127.791 35.8554 129.191 29.7556H121.064C120.075 31.8396 118.507 33.4056 115.745 33.4056C112.408 33.4056 109.956 31.0072 109.956 26.8806C109.956 22.7541 112.408 20.3557 115.745 20.3557C118.513 20.3557 120.073 21.9216 121.064 24.0077H129.198C127.791 17.9058 123.15 13.2652 115.753 13.2652C107.826 13.2652 102.039 19.3136 102.039 26.8747C102.039 34.4357 107.826 40.4842 115.753 40.4842L115.745 40.496ZM149.556 39.9226H159.091L147.201 25.6409L156.797 13.8564H147.462L139.848 23.191V0.814388H131.975V39.9226H139.85V28.2944L149.556 39.9226Z" fill="white"/>
</svg>
