<svg width="69" height="69" viewBox="0 0 69 69" fill="none" xmlns="http://www.w3.org/2000/svg">
<g clip-path="url(#clip0_34_732)">
<path fill-rule="evenodd" clip-rule="evenodd" d="M25.9906 35.2053C24.5236 35.486 23.0145 35.2281 21.5461 34.2345C17.0039 31.1607 16.2346 26.5855 17.4525 21.8447C19.2312 14.9224 25.3083 7.65011 29.6765 4.46787C29.8832 4.31691 30.1728 4.3631 30.3226 4.56946C30.4736 4.77618 30.4285 5.06608 30.2218 5.21704C25.9818 8.3054 20.0759 15.3576 18.3492 22.0757C17.2311 26.4287 17.8935 30.6445 22.0658 33.4671C23.307 34.3081 24.5812 34.5215 25.8222 34.2873C25.6816 33.474 25.5659 32.6673 25.4758 31.8689C25.2275 29.6649 25.648 23.9014 27.3919 20.1233C28.6435 17.4134 30.5726 15.7258 33.3002 16.6812C34.8161 17.2126 35.6169 18.5199 35.8076 20.2526C36.0711 22.6346 35.1525 25.8599 33.5165 28.708C32.1549 31.0795 30.3013 33.1864 28.2585 34.3443C27.809 34.5978 27.3513 34.8082 26.887 34.9662C29.0507 46.2095 35.8996 58.2701 44.6683 65.2418C44.8675 65.4014 44.9019 65.6922 44.7419 65.8925C44.5831 66.0932 44.2915 66.1261 44.0919 65.9676C35.1807 58.8815 28.2123 46.639 25.9906 35.2053ZM26.7189 34.0397C26.5885 33.275 26.4808 32.5164 26.3964 31.7652C26.1592 29.6531 26.562 24.1319 28.2331 20.512C29.2583 18.2904 30.7588 16.7722 32.9942 17.5552C34.168 17.9671 34.7385 19.0127 34.8877 20.3541C35.0503 21.8299 34.7101 23.6489 34.0202 25.4834C32.9726 28.2685 31.1153 31.0874 28.9082 32.7963C28.2092 33.338 27.4742 33.7664 26.7189 34.0397Z" fill="white"/>
<path fill-rule="evenodd" clip-rule="evenodd" d="M41.412 48.2777C40.6374 53.7486 42.2569 60.3575 44.6847 65.3528C44.7963 65.5825 44.7001 65.8597 44.4704 65.9714C44.2407 66.083 43.9631 65.9879 43.8515 65.7582C41.3473 60.6071 39.6969 53.7882 40.495 48.1482C40.5305 47.8958 40.7651 47.7193 41.0187 47.7552C41.2711 47.7908 41.4475 48.0253 41.412 48.2777Z" fill="white"/>
<path fill-rule="evenodd" clip-rule="evenodd" d="M43.7646 65.833C40.6572 62.4412 34.9186 60.27 30.3122 60.0071C30.0567 59.9926 29.8605 59.7738 29.876 59.5186C29.8905 59.2631 30.1088 59.068 30.3644 59.0825C35.1901 59.3581 41.1918 61.654 44.4474 65.2076C44.6203 65.3955 44.6071 65.6896 44.4192 65.8625C44.2301 66.035 43.9372 66.0221 43.7646 65.833Z" fill="white"/>
</g>
<defs>
<clipPath id="clip0_34_732">
<rect width="54.4672" height="54.4672" fill="white" transform="matrix(0.95226 0.305289 0.305289 -0.95226 0 51.8669)"/>
</clipPath>
</defs>
</svg>
