<svg width="20" height="24" viewBox="0 0 20 24" fill="none" xmlns="http://www.w3.org/2000/svg">
<path fill-rule="evenodd" clip-rule="evenodd" d="M9.60285 21.835L9.55354 21.6546V21.6005H9.50973L8.321 21.7448H8.25527V21.7809V21.9793V22.0154H8.29909L9.50973 21.853H9.55902L9.60285 21.835ZM0.262939 3.30163L0.43823 3.21142L5.59298 4.56455L6.25034 5.59745L0.810735 4.16763L1.21062 4.80361L6.65023 6.23341L7.24185 7.1761L7.13229 7.21217L1.84607 5.8365L2.24596 6.46796L6.36538 7.54144L5.65872 7.84815L7.17611 10.2612L6.73787 10.4416L5.215 8.02857L5.10545 8.08269L2.91427 7.50536L3.29225 8.11878L4.34949 8.41195L3.66474 8.70062L0.262939 3.30163ZM1.21062 2.88217L2.46508 2.35895L4.55765 2.9002L4.15776 2.28678L3.21556 2.02969L3.851 1.77711L5.1931 3.9376L1.21062 2.88217ZM0.547795 0L0 2.88217L3.54423 1.38019L0.547795 0ZM7.61983 9.12009L7.48836 9.06596H7.44454V9.10205L7.04465 9.62977V9.66585L7.17611 9.73802L7.55409 9.19226L7.61983 9.12009ZM8.1238 9.59369L8.03615 9.48544V9.44935L7.37332 9.75606L7.43905 9.86431V9.90039H7.46644L8.1238 9.59369ZM8.27719 10.1936V10.0492H7.46644V10.2297H8.23336L8.27719 10.1936ZM8.05806 10.7709L8.1238 10.6807V10.6446L7.46644 10.3379H7.43905L7.37332 10.4462L8.03615 10.7529L8.05806 10.7709ZM7.51027 11.222L7.64174 11.1498V11.1137L7.26376 10.586V10.5499L7.13229 10.6221V10.6582L7.51027 11.1859V11.222ZM6.7817 11.3663H6.93508V10.6942H6.7324V11.3843L6.7817 11.3663ZM6.05313 11.1859L6.1846 11.24V11.2039L6.56258 10.6582L6.43111 10.604V10.6401L6.05313 11.1859ZM5.54916 10.7348L5.6149 10.8431L6.27773 10.5364V10.5003L6.20651 10.4101V10.374L5.54916 10.6987V10.7348ZM5.37387 10.1394V10.2838H6.14078V10.0989H6.09696L5.35195 10.1214L5.37387 10.1394ZM10.9888 1.99361L11.5366 3.26555L13.2566 3.64443L11.5366 4.04586L10.9888 5.31329L10.441 4.04586L8.72637 3.64443L10.441 3.26555L10.9888 1.99361ZM2.64037 15.9038L3.12243 17.0675L4.68913 17.4103L3.12243 17.7531L2.64037 18.9167L2.18022 17.7531L0.613528 17.4103L2.18022 17.0675L2.64037 15.9038ZM19.0742 11.1904L19.1235 11.9346L20 12.3856H19.003L18.4552 13.0036L18.4114 12.2413L17.5294 11.8264H18.5429L19.0742 11.1904ZM17.3103 17.8433L17.6171 18.5875L18.6305 18.8085L17.6171 19.043L17.3103 19.7692L17.0036 19.043L15.9901 18.8085L17.0036 18.5875L17.3103 17.8433ZM10.9011 8.37136L11.2298 8.47961L14.4015 15.137L14.6864 14.5958L13.4977 16.851L10.1287 9.83274L10.9011 8.37136ZM12.9937 17.9064L12.1556 19.4851L11.9803 19.4129L8.69351 12.5931L8.46891 13.0442L9.59737 10.8837L12.9937 17.9064ZM10.7258 18.9618L9.55354 18.5424L7.44454 22.5522L6.71597 22.2951L8.80854 18.2898L8.61133 18.2176L7.24185 15.3715L8.14571 13.6486L10.7258 18.9618ZM7.35141 17.7801L6.1846 17.3652L6.69405 16.4044L7.35141 17.7801ZM12.4843 8.93065L14.5768 9.67487L15.8751 12.3811L14.9767 14.1041L12.4843 8.93065ZM15.8313 10.1304L16.8666 10.4913L16.4284 11.3437L15.8313 10.1304ZM16.2093 5.32231L11.2791 7.71735L17.1843 9.80116L16.2093 5.32231ZM9.42208 22.8408L9.50973 22.6424V22.6063H9.4659L8.34292 22.2635L8.27719 22.2409V22.277L8.21144 22.4619V22.5161H8.25527L9.40016 22.8589H9.44398L9.42208 22.8408ZM8.67707 23.6211L8.85236 23.4948L8.89619 23.4587L8.1238 22.6784L8.07998 22.6424L8.03615 22.6784L7.86086 22.8047H7.81703V22.8408L8.61133 23.6211H8.67707ZM7.55409 24L7.79512 23.9639H7.83895V23.9278L7.64174 22.9491V22.8949H7.59792H7.35141H7.30759V22.931L7.51027 23.9278V23.9639L7.55409 24ZM6.36538 23.8557L6.58449 23.9278H6.62832V23.8737L7.04465 22.9716V22.9175H7.00082L6.75979 22.8453H6.71597V22.8814L6.29965 23.8241V23.8602L6.36538 23.8557ZM5.39578 23.2558L5.54916 23.4001L5.59298 23.4362L5.63681 23.4001L6.56258 22.7641L6.60641 22.7281L6.56258 22.692L6.4092 22.5476V22.5116L6.36538 22.5476L5.4396 23.1836L5.39578 23.2197V23.2558ZM4.93016 22.3266L4.97397 22.5296V22.5657H5.03971L6.22843 22.3853H6.29965L6.27225 22.3266L6.22843 22.1282V22.0921H6.1627L4.97397 22.259H4.93016V22.3266ZM5.08354 21.3479L4.99589 21.5328V21.5689H5.03971L6.1846 21.9027H6.22843V21.8666L6.32155 21.6862V21.6501H6.27773L5.12736 21.3028H5.08354V21.3479ZM5.81211 20.554L5.63681 20.6803H5.59298L5.63681 20.7164L6.4092 21.4787L6.45303 21.5148L6.49685 21.4787L6.67214 21.3479H6.71597L6.67214 21.3118L5.89975 20.5495L5.85592 20.5089L5.81211 20.554Z" fill="white"/>
</svg>
