<svg width="24" height="24" viewBox="0 0 24 24" fill="none" xmlns="http://www.w3.org/2000/svg">
<path d="M14.032 2C15.372 2 16.042 2.912 16.042 3.957C16.042 5.262 14.878 6.469 13.363 6.469C12.094 6.469 11.354 5.719 11.389 4.479C11.389 3.436 12.27 2 14.032 2ZM9.909 22C8.851 22 8.076 21.348 8.816 18.476L10.03 13.384C10.241 12.57 10.276 12.243 10.03 12.243C9.713 12.243 8.341 12.805 7.528 13.36L7 12.48C9.572 10.294 12.531 9.013 13.801 9.013C14.858 9.013 15.034 10.286 14.506 12.243L13.115 17.595C12.869 18.54 12.974 18.866 13.221 18.866C13.538 18.866 14.578 18.474 15.6 17.659L16.2 18.473C13.698 21.02 10.965 22 9.909 22Z" fill="white"/>
</svg>
