<svg width="26" height="25" viewBox="0 0 26 25" fill="none" xmlns="http://www.w3.org/2000/svg">
<path d="M21.3348 0.754902H15.4699C14.8188 0.551972 14.1326 0.466375 13.4181 0.511949L5.23832 1.05155C2.1474 1.2534 -0.196559 3.847 0.0130296 6.83403L0.913231 19.446C1.01459 20.8912 1.69455 22.211 2.82771 23.1636C3.86191 24.0327 5.15964 24.5 6.51853 24.5C6.64738 24.5 6.77726 24.4954 6.90713 24.4874L10.8511 24.2259C10.9741 24.2354 11.0975 24.2441 11.2229 24.2441H21.3348C23.9069 24.2441 26 22.2249 26 19.743V5.25567C26 2.7741 23.9069 0.754902 21.3348 0.754902ZM6.81161 23.1324C5.68224 23.2093 4.60097 22.8534 3.7523 22.1401C2.90295 21.4261 2.39307 20.4371 2.31713 19.3539L1.41693 6.74156C1.25991 4.50228 3.01668 2.55733 5.33384 2.40586L7.76443 2.2456C7.01695 3.04402 6.55736 4.09779 6.55736 5.25567V19.743C6.55736 21.0506 7.14189 22.226 8.06786 23.0492L6.81161 23.1324ZM24.5927 19.743C24.5927 21.4765 23.131 22.8865 21.3348 22.8865H11.3947L11.3906 22.8288L10.9388 22.8588C9.27695 22.7173 7.9647 21.3826 7.9647 19.743V5.25567C7.9647 3.52251 9.42632 2.11252 11.2229 2.11252H21.3348C23.131 2.11252 24.5927 3.52251 24.5927 5.25567V19.743ZM10.5358 6.29509C10.5358 5.92022 10.8508 5.61628 11.2394 5.61628H17.0743C17.4632 5.61628 17.7779 5.92022 17.7779 6.29509C17.7779 6.66996 17.4632 6.9739 17.0743 6.9739H11.2394C10.8508 6.9739 10.5358 6.66996 10.5358 6.29509ZM22.1477 10.6159C22.1477 10.9907 21.833 11.2947 21.444 11.2947H11.2394C10.8508 11.2947 10.5358 10.9907 10.5358 10.6159C10.5358 10.241 10.8508 9.93707 11.2394 9.93707H21.444C21.833 9.93707 22.1477 10.241 22.1477 10.6159ZM22.1477 14.8316C22.1477 15.2068 21.833 15.5104 21.444 15.5104H11.2394C10.8508 15.5104 10.5358 15.2068 10.5358 14.8316C10.5358 14.4564 10.8508 14.1528 11.2394 14.1528H21.444C21.833 14.1528 22.1477 14.4564 22.1477 14.8316Z" fill="white"/>
</svg>
