<svg width="23" height="18" viewBox="0 0 23 18" fill="none" xmlns="http://www.w3.org/2000/svg">
<g clip-path="url(#clip0_76_604)">
<path fill-rule="evenodd" clip-rule="evenodd" d="M3.21193 1.5H18.6785C19.371 1.5 19.8904 2.0194 19.8904 2.71193V2.94278H4.0776C3.78904 2.94278 3.5582 3.17362 3.5582 3.46217C3.5582 3.75073 3.78904 3.98157 4.0776 3.98157H19.8904V5.7129C19.8904 6.34773 19.371 6.92484 18.6785 6.92484H16.6586C15.9661 6.92484 15.4467 7.44423 15.4467 8.07906V10.3875C15.4467 11.0223 15.9661 11.5417 16.6586 11.5417H18.6785C19.371 11.5417 19.8904 12.1188 19.8904 12.7536V15.7546C19.8904 16.4472 19.371 16.9666 18.6785 16.9666H3.21193C2.5194 16.9666 2 16.4472 2 15.7546V2.71193C2 2.0194 2.5194 1.5 3.21193 1.5Z" fill="url(#paint0_radial_76_604)"/>
<path fill-rule="evenodd" clip-rule="evenodd" d="M16.8317 7.1557H20.4098C20.9869 7.1557 21.4486 7.61739 21.4486 8.1945V10.2721C21.4486 10.8492 20.9869 11.3109 20.4098 11.3109H16.8317C16.2546 11.3109 15.7929 10.8492 15.7929 10.2721V8.1945C15.7929 7.61739 16.2546 7.1557 16.8317 7.1557ZM17.5819 8.48305C17.9859 8.48305 18.2745 8.82932 18.2745 9.2333C18.2745 9.63727 17.9859 9.92583 17.5819 9.92583C17.178 9.92583 16.8317 9.63727 16.8317 9.2333C16.8317 8.82932 17.178 8.48305 17.5819 8.48305Z" fill="url(#paint1_radial_76_604)"/>
</g>
<defs>
<radialGradient id="paint0_radial_76_604" cx="0" cy="0" r="1" gradientUnits="userSpaceOnUse" gradientTransform="translate(10.9452 9.23328) rotate(-86.8076) scale(10.9229 13.7988)">
<stop stop-color="#E0CB96"/>
<stop offset="1" stop-color="#D0A22F"/>
</radialGradient>
<radialGradient id="paint1_radial_76_604" cx="0" cy="0" r="1" gradientUnits="userSpaceOnUse" gradientTransform="translate(18.6207 9.2333) rotate(-86.245) scale(2.93625 4.3596)">
<stop stop-color="#E0CB96"/>
<stop offset="1" stop-color="#D0A22F"/>
</radialGradient>
<clipPath id="clip0_76_604">
<rect width="22.5502" height="18" fill="white" transform="translate(0.449829)"/>
</clipPath>
</defs>
</svg>
